<svg width="170" height="117" viewBox="0 0 170 117" fill="none" xmlns="http://www.w3.org/2000/svg">
<path d="M96.588 27.8533C99.5437 24.8987 101.369 20.824 101.369 16.3228C101.369 7.30657 94.0391 -0.00354004 84.9983 -0.00354004C79.2816 -0.00354004 74.257 2.92328 71.3291 7.34819C70.5502 8.12498 5.38628 88.2241 4.77776 89.1431C1.82208 92.0977 -0.003479 96.1723 -0.003479 100.67C-0.003479 109.686 7.32659 116.996 16.3675 116.996C22.0841 116.996 27.1088 114.07 30.0366 109.645C30.8155 108.868 95.9795 28.7688 96.588 27.8498V27.8533Z" fill="white"/>
<path d="M134.295 65.8604C137.258 62.9058 139.087 58.8242 139.087 54.3196C139.087 45.3033 131.757 37.9932 122.716 37.9932C117 37.9932 111.971 40.92 109.044 45.3518C108.258 46.1356 74.0345 88.2069 73.419 89.1362C70.4564 92.0908 68.6273 96.1724 68.6273 100.677C68.6273 109.693 75.9574 117.003 84.9983 117.003C90.7149 117.003 95.743 114.077 98.6709 109.645C99.4568 108.861 133.68 66.7897 134.295 65.8604Z" fill="white"/>
<path d="M169.565 20.0476C171.628 11.2687 166.164 2.48404 157.361 0.42657C148.558 -1.63089 139.75 3.81794 137.687 12.5969C135.624 21.3758 141.087 30.1605 149.89 32.2179C158.693 34.2754 167.502 28.8266 169.565 20.0476Z" fill="white"/>
<path d="M22.4144 31.4995C30.8175 28.1714 34.9241 18.68 31.587 10.2999C28.2498 1.91972 18.7325 -2.17578 10.3295 1.15231C1.92644 4.4804 -2.18024 13.9718 1.15693 22.3519C4.49411 30.7321 14.0114 34.8276 22.4144 31.4995Z" fill="white"/>
</svg>
